<svg width="60" height="60" viewBox="0 0 60 60" fill="none" xmlns="http://www.w3.org/2000/svg">
<path d="M30.216 0.587999C13.938 0.485999 0.509998 13.824 0.599998 30.018C0.599998 46.158 13.782 59.4 29.88 59.412C46.122 59.424 59.394 46.218 59.4 30.042C59.406 13.914 46.218 0.695999 30.216 0.587999ZM18.276 53.646C16.434 52.872 14.802 51.744 13.278 50.484C7.398 45.582 4.146 39.3 3.6 31.668C3.312 27.66 3.96 23.772 5.49 20.046C5.568 19.854 5.58 19.518 5.85 19.536C6.054 19.554 6.072 19.86 6.132 20.046C10.11 30.936 14.082 41.82 18.054 52.71C18.162 52.992 18.24 53.298 18.33 53.592V53.64L18.276 53.646ZM38.1 55.164C33.174 56.718 28.218 56.838 23.208 55.554C22.536 55.392 22.608 55.068 22.776 54.582C24.582 49.368 26.37 44.172 28.164 38.958C28.818 37.062 29.46 35.166 30.114 33.288C30.192 33.06 30.222 32.796 30.522 32.538C30.804 33.3 31.068 33.99 31.32 34.686C33.714 41.238 36.096 47.784 38.502 54.336C38.676 54.81 38.592 55.008 38.1 55.164ZM43.224 45.678C42.942 45.486 42.924 45.24 42.852 45.036C39.876 36.198 36.9 27.36 33.93 18.522C33.63 17.634 33.636 17.64 34.59 17.544C35.268 17.484 35.946 17.424 36.618 17.328C37.308 17.226 37.674 16.752 37.614 16.14C37.56 15.54 37.146 15.186 36.456 15.21C34.812 15.276 33.162 15.402 31.512 15.468C28.62 15.57 25.734 15.39 22.854 15.216C22.71 15.204 22.566 15.192 22.422 15.204C21.798 15.24 21.408 15.588 21.348 16.182C21.288 16.74 21.648 17.226 22.254 17.316C23.004 17.424 23.766 17.502 24.528 17.562C24.906 17.592 25.134 17.706 25.272 18.072C26.538 21.564 27.81 25.056 29.088 28.542C29.196 28.836 29.142 29.106 29.046 29.382C27.264 34.722 25.482 40.068 23.7 45.414C23.646 45.582 23.61 45.78 23.43 45.894C23.19 45.774 23.184 45.522 23.118 45.318C20.1 36.378 17.094 27.438 14.094 18.504C13.8 17.628 13.806 17.628 14.712 17.55C15.348 17.496 15.99 17.442 16.62 17.352C17.406 17.25 17.838 16.788 17.778 16.176C17.718 15.516 17.268 15.18 16.446 15.204C14.322 15.282 12.21 15.51 10.08 15.48C9.582 15.474 9.09 15.48 8.592 15.468C8.418 15.462 8.184 15.546 8.094 15.33C8.028 15.162 8.184 15.024 8.28 14.892C9.366 13.326 10.596 11.886 12.006 10.596C16.218 6.744 21.15 4.386 26.82 3.75C34.512 2.892 41.358 4.98 47.286 9.99C47.406 10.092 47.574 10.164 47.574 10.362C47.496 10.494 47.358 10.476 47.238 10.494C44.382 10.872 42.606 13.344 43.158 16.182C43.416 17.526 44.046 18.708 44.742 19.86C45.348 20.868 45.984 21.858 46.494 22.914C47.916 25.866 48.228 28.932 47.322 32.076C46.056 36.492 44.706 40.896 43.392 45.306C43.356 45.42 43.29 45.528 43.224 45.678ZM43.446 52.608C43.404 52.278 43.566 52.002 43.668 51.72C46.434 43.746 49.212 35.784 51.972 27.804C53.07 24.63 53.622 21.372 53.256 18C53.244 17.904 53.22 17.802 53.394 17.652C56.754 24.33 57.36 31.2 55.092 38.298C53.202 44.154 46.992 51.744 43.446 52.608Z" fill="#999999"/>
</svg>
